<svg xmlns="http://www.w3.org/2000/svg" xml:space="preserve" width="500" height="512" shape-rendering="geometricPrecision" text-rendering="geometricPrecision" image-rendering="optimizeQuality" fill-rule="evenodd" clip-rule="evenodd" viewBox="0 0 500 512.36"><path fill="#fff" fill-rule="nonzero" d="M46.87 47.16H90.1v57.68c0 16.04 7.46 30.21 19.49 40.07 10.17 8.33 23.7 13.51 38.16 13.51 14.46 0 27.99-5.18 38.16-13.51 12.04-9.86 19.5-24.03 19.5-40.07V47.16h87.28v57.68c0 16.04 7.46 30.21 19.5 40.07 10.16 8.33 23.69 13.51 38.15 13.51 14.46 0 28-5.18 38.17-13.51 12.03-9.86 19.49-24.03 19.49-40.07V47.16h45.13c25.74 0 46.87 21.13 46.87 46.87V465.48c0 12.9-5.28 24.62-13.77 33.11-8.52 8.48-20.24 13.77-33.1 13.77H46.87c-12.85 0-24.56-5.28-33.07-13.77C5.28 490.05 0 478.34 0 465.49V94.03c0-25.74 21.12-46.87 46.87-46.87zM228.12 418.6c-11.93-.83-27.13-3.77-38.83-6.91v-36.7c15.53 1.26 53.78 4.52 67.88 1.33 10.58-2.4 9.41-19.11 2.44-21.2-8.39-2.61-25.95.52-40.07-3.57-7.21-2.09-13.29-5.24-18.25-9.45-5.06-4.32-8.85-10.04-11.34-17.15-2.43-6.92-3.65-15.16-3.65-24.71v-12.58c0-26.89 14.83-42.91 41.82-47.42v-23.51h38.46v22.76c11.93.95 26.77 4 38.61 6.87v36.76c-16.14-1.42-46.75-4.31-62.06-1.53-1.36.25-2.59.63-3.63 1.12-6.29 2.98-6.04 20.17 1.66 22.21 5.04 1.32 15.37.62 20.88.62 5.57 0 10.74.55 15.48 1.62 4.79 1.09 9.12 2.74 12.96 4.93 16.11 9.18 23.21 25.37 23.21 43.25v12.59c0 7.47-.67 14.14-1.99 19.97-5.26 23.13-23.2 28.12-45.12 30.52v25.02h-38.46V418.6zm99.59-400.05C327.71 8.32 337.83 0 350.34 0c12.52 0 22.64 8.32 22.64 18.55v86.29c0 10.24-10.12 18.55-22.64 18.55-12.51 0-22.63-8.31-22.63-18.55V18.55zm-202.59 0C125.12 8.32 135.24 0 147.75 0s22.64 8.32 22.64 18.55v86.29c0 10.24-10.13 18.55-22.64 18.55s-22.63-8.31-22.63-18.55V18.55zM61.88 487.33h376.23c20.28 0 36.87-16.64 36.87-36.86V182.86H25.02v267.62c0 20.26 16.59 36.85 36.86 36.85z"/></svg>